<?xml version="1.0" encoding="UTF-8"?> <svg xmlns="http://www.w3.org/2000/svg" viewBox="0 0 106.14 32"><g fill="none" fill-rule="evenodd"><path fill="#F90" d="M65.851 25.026C59.695 29.572 50.742 32 43.045 32c-10.793 0-20.511-3.991-27.862-10.632-.577-.522-.06-1.233.633-.828 7.933 4.618 17.742 7.394 27.874 7.394 6.834 0 14.35-1.414 21.263-4.348 1.045-.444 1.917.683.896 1.441m2.567-2.934c-.786-1.008-5.201-.475-7.2-.24-.604.075-.697-.453-.152-.832 3.524-2.481 9.309-1.765 9.985-.934.676.831-.175 6.634-3.488 9.403-.51.424-.993.198-.767-.366.743-1.857 2.411-6.02 1.622-7.032"></path><path fill="#221F1F" d="M61.356 3.504V1.092a.594.594 0 0 1 .61-.61h10.797c.346 0 .625.25.625.61v2.065c-.005.346-.298.8-.813 1.516L66.98 12.66c2.08-.05 4.273.26 6.158 1.322.425.24.531.59.573.938v2.574c0 .35-.388.762-.796.55-3.322-1.74-7.735-1.932-11.407.018-.375.204-.768-.204-.768-.554v-2.445c0-.392.005-1.061.397-1.659l6.483-9.296H61.99c-.346 0-.625-.244-.625-.605m-39.399 15.05h-3.284a.622.622 0 0 1-.587-.56V1.134c0-.338.282-.605.632-.605h3.064a.62.62 0 0 1 .596.562v2.204h.06c.8-2.13 2.302-3.124 4.325-3.124 2.056 0 3.34.993 4.265 3.124.796-2.13 2.6-3.124 4.538-3.124 1.377 0 2.883.568 3.802 1.844 1.04 1.418.828 3.48.828 5.286l-.007 10.642a.62.62 0 0 1-.633.61h-3.29c-.319-.023-.592-.286-.592-.61V8.995c0-.711.064-2.486-.092-3.16-.244-1.132-.98-1.451-1.932-1.451-.796 0-1.626.53-1.964 1.382-.337.851-.304 2.274-.304 3.23v8.937a.62.62 0 0 1-.633.61h-3.29a.622.622 0 0 1-.592-.61l-.004-8.937c0-1.881.31-4.65-2.024-4.65-2.36 0-2.269 2.699-2.269 4.65v8.937a.62.62 0 0 1-.632.61M82.684.186c4.874 0 7.513 4.186 7.513 9.508 0 5.143-2.916 9.222-7.513 9.222-4.777 0-7.393-4.186-7.393-9.402 0-5.25 2.639-9.341 7.393-9.341m.028 3.442c-2.42 0-2.575 3.3-2.575 5.355 0 2.056-.031 6.46 2.546 6.46 2.545 0 2.666-3.55 2.666-5.711 0-1.423-.06-3.124-.488-4.473-.37-1.174-1.104-1.632-2.148-1.632m13.806 14.94h-3.271c-.319-.023-.592-.286-.592-.61l-.004-16.865c.028-.31.3-.55.633-.55h3.046a.629.629 0 0 1 .587.472v2.58h.06c.92-2.306 2.209-3.406 4.478-3.406 1.486 0 2.91.53 3.835 1.987.85 1.348.85 3.618.85 5.25v10.614c-.038.297-.31.53-.633.53h-3.289c-.3-.023-.55-.244-.582-.53V8.867c0-1.843.213-4.543-2.056-4.543-.799 0-1.533.536-1.91 1.348-.462 1.03-.522 2.057-.522 3.193v9.08a.631.631 0 0 1-.643.61m-43.759-8.067c0 1.28.032 2.336-.615 3.484-.522.924-1.354 1.492-2.274 1.492-1.26 0-2-.96-2-2.38 0-2.8 2.509-3.308 4.887-3.308v.711m3.312 8.008a.683.683 0 0 1-.775.079c-1.09-.906-1.288-1.327-1.885-2.19-1.802 1.838-3.081 2.388-5.416 2.388-2.767 0-4.916-1.705-4.916-5.12 0-2.666 1.441-4.48 3.503-5.368 1.783-.786 4.273-.924 6.177-1.141v-.425c0-.781.06-1.705-.403-2.38-.397-.605-1.165-.854-1.844-.854-1.252 0-2.367.642-2.639 1.974-.055.297-.272.587-.573.6l-3.184-.34c-.268-.061-.568-.277-.489-.69C44.343 1.162 47.838 0 50.96 0c1.598 0 3.687.425 4.948 1.635 1.599 1.492 1.446 3.483 1.446 5.65v5.12c0 1.54.637 2.214 1.239 3.047.208.297.255.651-.014.873l-2.511 2.191-.005-.01M9.681 10.499c0 1.28.031 2.335-.616 3.484-.522.923-1.348 1.492-2.274 1.492-1.26 0-1.995-.96-1.995-2.38 0-2.8 2.509-3.308 4.882-3.308v.71m3.312 8.009a.683.683 0 0 1-.775.078c-1.09-.905-1.273-1.327-1.885-2.19-1.802 1.839-3.078 2.389-5.415 2.389C2.153 18.783 0 17.079 0 13.665 0 11 1.446 9.184 3.503 8.296c1.783-.785 4.273-.923 6.178-1.14V6.73c0-.781.06-1.705-.397-2.38-.404-.605-1.168-.855-1.844-.855-1.253 0-2.37.643-2.654 1.975-.055.297-.273.587-.568.6L1.03 5.73C.762 5.67.467 5.454.54 5.04 1.276 1.176 4.766.013 7.887.013c1.598 0 3.687.424 4.948 1.634 1.599 1.493 1.446 3.484 1.446 5.652v5.12c0 1.538.637 2.212 1.239 3.045.212.298.259.652-.01.874l-2.506 2.178-.01-.01"></path></g></svg> 